<svg width="32" height="32" viewBox="0 0 32 32" fill="none" xmlns="http://www.w3.org/2000/svg">
<path d="M8.33333 4C5.95204 4 4 5.95204 4 8.33333V23.6667C4 26.0479 5.95204 28 8.33333 28H23.6667C26.0479 28 28 26.0479 28 23.6667V8.33333C28 5.95204 26.0479 4 23.6667 4H8.33333ZM8.33333 6H23.6667C24.9667 6 26 7.03329 26 8.33333V23.6667C26 24.9667 24.9667 26 23.6667 26H8.33333C7.03329 26 6 24.9667 6 23.6667V8.33333C6 7.03329 7.03329 6 8.33333 6ZM9.21875 9.33333L14.3763 16.7044L9.21484 22.6667H10.5768L14.9792 17.5677L18.5469 22.6667H22.8385L17.3503 14.8229L22.0911 9.33334H20.7578L16.7487 13.9622L13.5104 9.33334L9.21875 9.33333ZM11.2904 10.4635H12.9987L20.7669 21.5365H19.0586L11.2904 10.4635Z" fill="#4F3527"/>
</svg>
